<svg xmlns="http://www.w3.org/2000/svg" xmlns:xlink="http://www.w3.org/1999/xlink" id="Ebene_1" x="0px" y="0px" width="66px" height="66px" viewBox="0 0 66 66" style="enable-background:new 0 0 66 66;" xml:space="preserve"><style type="text/css">	.st0{fill:#DCCA87;}</style><g>	<path class="st0" d="M45.7,41.6c-0.3,0.3-0.7,0.7-1,1l0.2,0.2l-9.6,10.6l-1.2-1.1l-1.1,1l2.3,2.1l6.6-7.3l13.4,12.2  c0.8,0.7,2.1,0.7,2.9-0.1l2.1-2.4c0.8-0.9,0.7-2.2-0.1-3L45.7,41.6z M42.9,47.1l3-3.3l1.8,1.6l-3,3.3L42.9,47.1z M59.3,56.9  l-2.1,2.4c-0.2,0.2-0.6,0.3-0.8,0l-10.6-9.6l3-3.3l10.5,9.5C59.6,56.1,59.6,56.6,59.3,56.9z"></path>	<path class="st0" d="M12,30.9c2.3,3.7,5.1,7.2,8.3,10.7l1.1-1c-3.2-3.3-5.9-6.8-8.1-10.4c-2.4-3.9-4.2-8-5.4-12.1  c-1.2-4.3-1.4-8-1.3-10.2l2.6,2.4c0,1.1,0.1,4.6,1.6,9.3c1.6,5,5,12.4,12.4,19.3l1.1-1C17,31.4,13.6,24.2,12.1,19.4  c-1-3.3-1.4-6-1.5-7.6l21.3,19.3l1.1-1L5.4,5.1L5.2,6.4c0,0.2-0.8,4.9,1.2,12.1C7.6,22.7,9.5,26.9,12,30.9z"></path></g><path class="st0" d="M5.8,54.8c-0.9,0.8-0.9,2.1-0.1,3l2.1,2.4c0.7,0.8,2,0.9,2.9,0.1L24,48.2l6.6,7.3l11.1-10 c5-4.6,9.2-9.5,12.3-14.5c2.5-4.1,4.4-8.3,5.5-12.5c2-7.2,1.3-11.9,1.2-12.1l-0.2-1.3L5.8,54.8z M8.8,59.2l-2.1-2.4 c-0.3-0.3-0.2-0.7,0-1l10.5-9.5l3,3.3L9.7,59.3C9.4,59.5,9,59.5,8.8,59.2z M23.1,47.1l-1.8,1.6l-3-3.3l1.8-1.6L23.1,47.1z  M58.1,18.2c-1.1,4.1-2.9,8.1-5.4,12.1c-3,4.9-7.1,9.7-12,14.2l-10,9.1l-9.6-10.6l34.3-31.1c-0.1,1.6-0.5,4.3-1.5,7.6 c-1.5,5-5,12.3-12.5,19.1l-10.8,9.8c-0.3,0.3-0.3,0.7,0,1s0.7,0.3,1,0l10.8-9.8c7.8-7.1,11.3-14.7,12.9-19.8 c1.5-4.7,1.6-8.2,1.6-9.3L59.5,8C59.6,10.2,59.4,13.9,58.1,18.2z"></path></svg>