<?xml version="1.0" standalone="no"?>
<!DOCTYPE svg PUBLIC "-//W3C//DTD SVG 20010904//EN"
 "http://www.w3.org/TR/2001/REC-SVG-20010904/DTD/svg10.dtd">
<svg version="1.0" xmlns="http://www.w3.org/2000/svg"
 width="1274.000000pt" height="1280.000000pt" viewBox="0 0 1274.000000 1280.000000"
 preserveAspectRatio="xMidYMid meet">
<g transform="translate(0.000000,1280.000000) scale(0.100000,-0.100000)"
fill="#000000" stroke="none">
<path d="M7555 12777 c-38 -13 -88 -35 -110 -49 -60 -38 -133 -121 -163 -186
-24 -51 -27 -69 -27 -167 0 -98 3 -116 26 -165 55 -115 147 -197 258 -229 43
-13 114 -22 206 -26 1588 -69 3021 -1013 3720 -2450 247 -509 392 -1067 425
-1645 12 -200 27 -280 66 -345 36 -63 115 -132 192 -168 61 -29 75 -32 167
-32 92 0 106 3 167 32 125 59 206 160 244 305 16 60 16 79 5 195 -6 70 -17
178 -22 238 -59 656 -260 1340 -561 1915 -406 774 -990 1427 -1705 1907 -747
502 -1556 785 -2483 868 -301 27 -326 28 -405 2z"/>
<path d="M7105 11216 c-119 -30 -225 -117 -277 -225 -40 -83 -50 -205 -24
-293 22 -75 86 -169 147 -214 82 -60 135 -75 324 -90 217 -18 356 -38 525 -76
1273 -288 2251 -1307 2484 -2588 23 -127 35 -229 55 -465 11 -132 38 -199 107
-275 65 -69 121 -104 200 -125 234 -61 469 88 514 325 20 106 -19 511 -76 785
-254 1225 -1056 2265 -2180 2828 -326 163 -719 293 -1094 361 -272 50 -617 75
-705 52z"/>
<path d="M2305 11124 c-186 -22 -294 -53 -446 -129 -213 -107 -411 -256 -624
-470 -168 -168 -282 -307 -420 -515 -130 -195 -208 -332 -306 -535 -227 -471
-434 -1134 -479 -1530 -6 -55 -15 -133 -20 -173 -13 -93 -13 -251 0 -344 5
-40 14 -122 20 -183 116 -1155 896 -2658 2161 -4166 307 -366 360 -421 644
-673 923 -819 1970 -1523 2860 -1921 564 -253 1101 -410 1555 -454 63 -7 148
-16 188 -21 93 -13 241 -13 334 0 40 5 118 14 173 20 280 31 808 177 1186 328
870 348 1515 861 1844 1466 97 179 140 342 151 574 18 364 -87 764 -285 1082
-168 270 -431 522 -736 705 -419 251 -895 438 -1300 512 -143 26 -523 26 -645
0 -265 -57 -481 -166 -659 -333 -76 -71 -115 -120 -291 -359 -40 -55 -121
-147 -179 -205 -410 -406 -829 -435 -1342 -92 -483 324 -1654 1499 -1984 1992
-84 125 -171 309 -201 425 -34 128 -38 302 -10 410 70 270 267 509 630 766
311 219 490 482 567 829 86 391 18 846 -209 1395 -59 144 -233 485 -306 603
-134 215 -324 436 -496 575 -286 231 -628 375 -995 417 -84 9 -311 11 -380 4z
m430 -679 c250 -52 444 -160 635 -353 158 -161 245 -291 398 -597 353 -707
392 -1253 109 -1543 -29 -30 -97 -86 -151 -125 -224 -159 -449 -366 -568 -522
-440 -578 -460 -1229 -55 -1887 77 -127 166 -246 309 -418 501 -598 1269
-1355 1761 -1734 509 -393 1035 -535 1524 -411 419 107 821 419 1134 881 153
227 347 324 648 324 310 0 711 -127 1146 -362 297 -161 466 -299 616 -504 164
-223 247 -535 219 -817 -13 -127 -31 -186 -90 -286 -246 -422 -746 -809 -1401
-1086 -269 -114 -755 -263 -1014 -310 -120 -22 -455 -31 -607 -16 -901 88
-2009 615 -3237 1539 -361 272 -789 627 -1015 843 -123 118 -386 419 -617 709
-1200 1503 -1845 2903 -1806 3920 7 189 33 345 97 583 213 797 534 1407 956
1817 150 146 269 235 409 305 84 42 127 58 180 65 99 13 325 5 420 -15z"/>
<path d="M6560 9605 c-304 -86 -406 -470 -183 -693 75 -75 156 -111 280 -123
385 -39 610 -100 882 -239 263 -134 470 -296 658 -515 282 -327 469 -751 513
-1165 6 -58 15 -138 20 -178 24 -207 183 -359 385 -370 217 -11 392 124 436
338 8 41 8 88 0 185 -64 747 -372 1403 -897 1915 -165 160 -265 242 -434 355
-378 252 -786 408 -1241 475 -188 28 -352 33 -419 15z"/>
</g>
</svg>
