<svg xmlns="http://www.w3.org/2000/svg" width="1920" height="812" viewBox="0 0 1920 812" fill="none"><g clip-path="url(#clip0)"><path opacity="0.2" d="M1981 70.5C1548.17 86.3333 628.6 288.8 413 972C197.4 1655.2 907.833 2393 1290 2676.5C1701.17 2947.83 2276.8 4053 1290 6303C56.5 9115.5 222.5 9330 1290 10762L2083.5 11791C1816.83 11826.3 1309.1 12096.4 1411.5 12894C1513.9 13691.6 416.833 14616 -144.5 14978.5" stroke="#ABABAB" stroke-width="2"></path><path opacity="0.2" d="M-1049 161C-616.167 176.833 303.4 379.3 519 1062.5C734.6 1745.7 24.1667 2483.5 -358 2767C-769.167 3038.33 -1344.8 4143.5 -358 6393.5C875.5 9206 709.5 9420.5 -358 10852.5" stroke="#ABABAB" stroke-width="2"></path></g><defs><clipPath id="clip0"><rect width="1920" height="812" fill="white"></rect></clipPath></defs></svg>